<?xml version="1.0" encoding="utf-8"?>
<!-- Generator: Adobe Illustrator 19.0.0, SVG Export Plug-In . SVG Version: 6.00 Build 0)  -->
<svg version="1.1" id="Capa_1" xmlns="http://www.w3.org/2000/svg" xmlns:xlink="http://www.w3.org/1999/xlink" x="0px" y="0px"
	 viewBox="15.125 -0.002 469.752 500" enable-background="new 15.125 -0.002 469.752 500" xml:space="preserve">
<path d="M217.608,223.804c0-13.289-6.917-20.075-20.564-20.075c-7.012,0-14.012,2.41-20.812,7.158
	c-2.234,1.56-5.059,2.048-7.677,1.326c-2.633-0.723-4.799-2.58-5.921-5.065l-2.311-5.111c-1.768-3.916-0.575-8.533,2.858-11.109
	c10.575-7.912,23.878-12.271,37.462-12.271c31.117,0,45.04,21.617,45.04,43.041c0,26.794-19.207,47.374-46.345,73.518l-1.145,1.053
	h41.522c5.067,0,9.166,4.104,9.166,9.164v6.747c0,5.06-4.1,9.162-9.166,9.162h-75.148c-5.061,0-9.164-4.102-9.164-9.162v-5.213
	c0-2.476,1.002-4.847,2.779-6.573l12.585-12.215C202.488,257.979,217.425,241.812,217.608,223.804z M308.483,180.858h8.75
	c5.057,0,9.165,4.104,9.165,9.162v71.643h9.033c5.061,0,9.165,4.104,9.165,9.162v5.95c0,5.061-4.104,9.163-9.165,9.163h-9.033v26.24
	c0,5.06-4.108,9.162-9.165,9.162h-8.75c-5.061,0-9.161-4.102-9.161-9.162v-26.24h-51.243c-5.06,0-9.16-4.103-9.16-9.163v-6.438
	c0-1.878,0.575-3.71,1.65-5.249l56.123-80.317c1.712-2.451,4.515-3.915,7.512-3.915h2.798c0.244,0,0.492,0.01,0.736,0.032
	C307.982,180.868,308.232,180.858,308.483,180.858z M299.322,220.993c-8.621,12.946-20.641,30.463-27.67,40.67h27.67V220.993z
	 M250.345,460.365c-107.844,0-195.583-87.74-195.583-195.584c0-102.119,78.676-186.194,178.591-194.838v31.177
	c0,2.215,1.222,4.251,3.175,5.29c0.885,0.473,1.853,0.704,2.819,0.704c1.168,0,2.337-0.342,3.342-1.02l70.792-47.562
	c1.658-1.113,2.652-2.979,2.652-4.977c0-1.996-0.994-3.864-2.652-4.976L242.689,1.018c-1.837-1.235-4.208-1.359-6.163-0.314
	c-1.953,1.041-3.175,3.077-3.175,5.291v24.184C111.555,38.917,15.125,140.794,15.125,264.779
	c0,129.701,105.521,235.219,235.218,235.219c60.048,0,117.215-22.625,160.969-63.706l-27.128-28.895
	C347.806,441.554,300.275,460.365,250.345,460.365z M451.13,142.193c-8.103-13.253-17.579-25.766-28.155-37.187l-29.083,26.928
	c8.803,9.504,16.682,19.916,23.427,30.939L451.13,142.193z M444.145,238.22l39.275-5.332c-2.096-15.441-5.747-30.714-10.854-45.393
	l-37.435,13.018C439.371,212.703,442.402,225.389,444.145,238.22z M385.252,72.071c-12.755-8.946-26.442-16.64-40.682-22.873
	l-15.889,36.311c11.833,5.18,23.21,11.575,33.812,19.011L385.252,72.071z M401.436,388.983l30.604,25.188
	c9.899-12.028,18.629-25.076,25.942-38.782l-34.967-18.662C416.935,368.123,409.675,378.977,401.436,388.983z M445.352,279.906
	c-0.986,12.932-3.267,25.785-6.774,38.197l38.141,10.783c4.227-14.943,6.969-30.407,8.158-45.961L445.352,279.906z"/>
</svg>
