<?xml version="1.0" encoding="utf-8"?>
<!-- Generator: Adobe Illustrator 19.0.0, SVG Export Plug-In . SVG Version: 6.00 Build 0)  -->
<svg version="1.1" id="Layer_1" xmlns="http://www.w3.org/2000/svg" xmlns:xlink="http://www.w3.org/1999/xlink" x="0px" y="0px"
	 viewBox="2.08 0 495.841 500" enable-background="new 2.08 0 495.841 500" xml:space="preserve">
<path d="M497.921,74.897C497.921,33.595,464.325,0,423.024,0c-20.497,0-40.045,8.513-54.092,23.185
	C354.885,8.513,335.337,0,314.841,0c-41.302,0-74.896,33.595-74.896,74.897c0,25.747,12.957,49.265,34.718,63.129l11.768,11.767
	L140.082,296.141l-27.403-27.404c-3.254-3.254-8.514-3.254-11.767,0l-33.288,33.287c-3.254,3.254-3.254,8.514,0,11.768
	l27.404,27.404L81.83,354.393l-27.404-27.403c-3.254-3.254-8.513-3.254-11.767,0L8.331,361.316c-3.254,3.254-3.254,8.514,0,11.768
	l27.404,27.403L4.52,431.703c-3.254,3.254-3.254,8.513,0,11.767l54.092,54.092c1.623,1.623,3.753,2.438,5.883,2.438
	s4.261-0.815,5.884-2.438l53.06-53.06l27.404,27.403c3.254,3.254,8.513,3.254,11.767,0l41.609-41.608
	c3.253-3.254,3.253-8.514,0-11.768l-27.404-27.404l175.474-175.473l7.605,7.606c13.864,21.762,37.382,34.719,63.13,34.719
	c41.301,0,74.897-33.595,74.897-74.896c0-20.497-8.514-40.044-23.185-54.092C489.407,114.941,497.921,95.393,497.921,74.897z
	 M481.277,183.08c0,32.114-26.14,58.253-58.253,58.253c-20.272,0-38.771-10.344-49.498-27.67c-0.342-0.541-0.741-1.048-1.198-1.506
	l-14.156-14.155c-3.254-3.254-8.513-3.254-11.767,0L159.164,385.242c-3.254,3.254-3.254,8.514,0,11.767l27.404,27.404
	l-29.842,29.842l-27.404-27.403c-3.254-3.254-8.513-3.254-11.767,0l-53.06,53.06L22.17,437.586l31.215-31.215
	c3.253-3.254,3.253-8.513,0-11.768L25.982,367.2l22.56-22.56l27.404,27.402c3.254,3.254,8.513,3.254,11.767,0l24.966-24.965
	c3.253-3.254,3.253-8.514,0-11.768l-27.404-27.403l21.52-21.52l27.404,27.404c3.254,3.254,8.513,3.254,11.767,0L304.08,155.676
	c3.254-3.254,3.254-8.513,0-11.767l-18.316-18.316c-0.457-0.458-0.957-0.857-1.506-1.198c-17.326-10.727-27.67-29.226-27.67-49.498
	c0-32.114,26.139-58.253,58.253-58.253c18.683,0,36.374,9.121,47.334,24.399c3.121,4.353,10.402,4.353,13.523,0
	c10.951-15.279,28.644-24.399,47.326-24.399c32.113,0,58.253,26.139,58.253,58.253c0,18.683-9.121,36.374-24.4,47.334
	c-2.18,1.564-3.47,4.078-3.47,6.757c0,2.68,1.29,5.201,3.47,6.757C472.156,146.706,481.277,164.398,481.277,183.08z
	 M200.764,302.022L325.57,177.216l11.769,11.769L212.533,313.791L200.764,302.022z M167.48,335.29l16.641-16.642l11.769,11.77
	l-16.641,16.641L167.48,335.29z M423.024,41.609c-18.358,0-33.287,14.929-33.287,33.287s14.929,33.287,33.287,33.287
	c18.357,0,33.287-14.929,33.287-33.287S441.382,41.609,423.024,41.609z M423.024,91.54c-9.179,0-16.643-7.465-16.643-16.643
	c0-9.179,7.465-16.644,16.643-16.644c9.179,0,16.644,7.464,16.644,16.644C439.668,84.075,432.203,91.54,423.024,91.54z
	 M317.273,105.734l11.77-11.769l16.641,16.641l-11.769,11.769L317.273,105.734z M350.559,139.022l11.768-11.769l16.642,16.641
	l-11.77,11.769L350.559,139.022z M383.844,172.31l11.769-11.769l16.641,16.641l-11.769,11.769L383.844,172.31z M489.599,357.838
	h-14.597c-0.457-1.156-0.932-2.305-1.447-3.461l10.327-10.328c3.254-3.254,3.254-8.514,0-11.767L448.58,296.98
	c-3.254-3.254-8.513-3.254-11.767,0l-10.327,10.328c-1.157-0.517-2.306-0.99-3.462-1.448v-14.597c0-4.602-3.72-8.322-8.322-8.322
	h-49.931c-4.602,0-8.322,3.721-8.322,8.322v14.597c-1.156,0.458-2.305,0.933-3.462,1.448L342.66,296.98
	c-3.254-3.254-8.513-3.254-11.767,0l-35.302,35.302c-3.254,3.253-3.254,8.513,0,11.767l10.328,10.328
	c-0.517,1.156-0.99,2.305-1.448,3.461h-14.597c-4.602,0-8.322,3.721-8.322,8.322v49.931c0,4.603,3.721,8.322,8.322,8.322h14.597
	c0.458,1.156,0.932,2.305,1.448,3.462l-10.328,10.327c-3.254,3.254-3.254,8.514,0,11.767l35.302,35.302
	c3.254,3.254,8.513,3.254,11.767,0l10.327-10.327c1.157,0.516,2.306,0.99,3.462,1.447v14.597c0,4.603,3.721,8.322,8.322,8.322
	h49.931c4.603,0,8.322-3.72,8.322-8.322v-14.597c1.156-0.457,2.305-0.932,3.462-1.447l10.327,10.327
	c3.254,3.254,8.513,3.254,11.767,0l35.302-35.302c3.254-3.253,3.254-8.513,0-11.767l-10.327-10.327
	c0.516-1.157,0.99-2.306,1.447-3.462h14.597c4.603,0,8.322-3.72,8.322-8.322V366.16
	C497.921,361.559,494.201,357.838,489.599,357.838z M481.277,407.77h-12.142c-3.637,0-6.841,2.354-7.939,5.816
	c-1.265,4.02-2.971,8.114-5.076,12.142c-1.681,3.229-1.073,7.165,1.498,9.736l8.621,8.622l-23.534,23.534l-8.621-8.622
	c-2.571-2.571-6.508-3.179-9.736-1.498c-4.028,2.105-8.122,3.811-12.142,5.077c-3.471,1.107-5.825,4.311-5.825,7.947v12.142h-33.287
	v-12.142c0-3.637-2.355-6.841-5.817-7.939c-4.02-1.265-8.114-2.971-12.142-5.076c-3.229-1.681-7.156-1.073-9.736,1.498l-8.621,8.621
	l-23.534-23.534l8.621-8.621c2.571-2.571,3.179-6.508,1.498-9.736c-2.105-4.028-3.812-8.122-5.076-12.142
	c-1.107-3.471-4.312-5.825-7.947-5.825h-12.142v-33.287h12.142c3.636,0,6.84-2.355,7.938-5.817c1.265-4.02,2.971-8.114,5.076-12.142
	c1.682-3.229,1.074-7.165-1.498-9.736l-8.621-8.621l23.534-23.535l8.621,8.622c2.58,2.579,6.508,3.171,9.736,1.498
	c4.028-2.105,8.123-3.811,12.142-5.077c3.471-1.105,5.826-4.31,5.826-7.947v-12.141h33.287v12.141c0,3.637,2.354,6.841,5.816,7.939
	c4.02,1.266,8.114,2.971,12.142,5.076c3.229,1.673,7.165,1.082,9.736-1.498l8.622-8.621l23.534,23.534l-8.622,8.622
	c-2.571,2.57-3.179,6.507-1.498,9.736c2.105,4.027,3.812,8.121,5.077,12.141c1.106,3.471,4.311,5.826,7.947,5.826h12.142V407.77z
	 M389.737,341.195c-27.537,0-49.932,22.394-49.932,49.93c0,27.537,22.395,49.932,49.932,49.932
	c27.536,0,49.931-22.395,49.931-49.932C439.668,363.589,417.273,341.195,389.737,341.195z M389.737,424.413
	c-18.358,0-33.288-14.93-33.288-33.288c0-18.357,14.93-33.287,33.288-33.287c18.357,0,33.287,14.93,33.287,33.287
	C423.024,409.483,408.095,424.413,389.737,424.413z M56.864,174.758H40.22c0,13.764-11.201,24.965-24.965,24.965v16.644
	c13.764,0,24.965,11.201,24.965,24.966h16.644c0-13.765,11.201-24.966,24.965-24.966v-16.644
	C68.065,199.724,56.864,188.523,56.864,174.758z M48.542,216.626c-2.43-3.271-5.309-6.15-8.58-8.58c3.271-2.43,6.15-5.309,8.58-8.58
	c2.43,3.271,5.31,6.15,8.58,8.58C53.852,210.476,50.972,213.355,48.542,216.626z M156.726,124.827h-16.644
	c0,13.765-11.201,24.966-24.965,24.966v16.644c13.764,0,24.965,11.201,24.965,24.965h16.644c0-13.764,11.201-24.965,24.965-24.965
	v-16.644C167.927,149.793,156.726,138.592,156.726,124.827z M148.404,166.694c-2.43-3.27-5.31-6.15-8.58-8.58
	c3.27-2.43,6.15-5.31,8.58-8.58c2.43,3.27,5.309,6.15,8.58,8.58C153.713,160.544,150.834,163.424,148.404,166.694z M73.508,49.931
	H56.864c0,13.765-11.201,24.966-24.966,24.966V91.54c13.765,0,24.966,11.201,24.966,24.965h16.643
	c0-13.764,11.201-24.965,24.965-24.965V74.897C84.709,74.897,73.508,63.695,73.508,49.931z M65.186,91.798
	c-2.43-3.271-5.309-6.15-8.58-8.58c3.271-2.43,6.15-5.31,8.58-8.58c2.43,3.27,5.309,6.149,8.58,8.58
	C70.495,85.648,67.616,88.527,65.186,91.798z"/>
</svg>
