<?xml version="1.0" encoding="iso-8859-1"?>
<!-- Generator: Adobe Illustrator 19.0.0, SVG Export Plug-In . SVG Version: 6.00 Build 0)  -->
<svg version="1.1" id="Layer_1" xmlns="http://www.w3.org/2000/svg" xmlns:xlink="http://www.w3.org/1999/xlink" x="0px" y="0px"
	 viewBox="0 0 485 485" style="enable-background:new 0 0 485 485;" xml:space="preserve">
<g>
	<path d="M177.506,400c70.782,0,107.829-39.043,107.829-77.631c0.012-28.527-16.714-42.618-34.472-57.583l-14.981-11.643
		c-4.636-3.843-10.402-8.609-10.402-17.458c0-8.69,5.767-14.424,10.85-19.491l0.541-0.541c16.169-12.74,34.517-27.193,34.517-58.441
		c0-31.418-19.633-47.656-29.088-55.456h24.94c0.301,0,0.606-0.094,0.858-0.252l21.475-13.501c0.606-0.382,0.907-1.131,0.699-1.83
		C290.069,85.48,289.43,85,288.719,85h-75.138c-33.472,0-56.647,7.34-77.505,24.574c-16.392,14.156-26.193,34.712-26.193,55.012
		c0,31.276,23.842,64.524,68.034,64.524c4.258,0,8.963-0.443,13.107-0.826l-0.602,1.476c-1.781,4.258-3.465,8.275-3.465,14.534
		c0,12.2,5.876,19.731,11.582,27.006l0.716,0.919l-1.273,0.098c-18.251,1.24-52.215,3.574-77.025,18.824
		c-29.308,17.425-31.581,42.76-31.581,50.1C89.376,370.489,116.617,400,177.506,400z M197.204,217.594
		c-36.221,0-51.247-47.607-51.247-73.104c0-12.96,2.94-22.907,9.007-30.418c6.576-8.231,17.856-13.55,28.718-13.55
		c33.248,0,51.629,44.7,51.629,75.581c0,4.876,0,19.695-10.232,29.991C218.188,212.971,206.989,217.594,197.204,217.594z
		 M160.683,290.345c18.698-6.287,42.841-6.608,43.081-6.608c4.083,0,6.149,0,9.402,0.415c30.198,21.492,44.72,32.772,44.72,54.264
		c0,27.368-23.098,44.366-60.287,44.366c-43.142,0-72.133-20.142-72.133-50.149C125.466,313.049,137.316,298.816,160.683,290.345z"
		/>
	<path d="M294.753,252.636h39.381v39.698c0,0.891,0.728,1.619,1.618,1.619h17.027c0.907,0,1.639-0.728,1.639-1.619v-39.698h39.584
		c0.891,0,1.623-0.732,1.623-1.635v-17.25c0-0.907-0.716-1.623-1.623-1.623h-39.584V192.67c0-0.891-0.732-1.619-1.639-1.619h-17.027
		c-0.891,0-1.618,0.728-1.618,1.619v39.458h-39.381c-0.907,0-1.635,0.732-1.635,1.623v17.25
		C293.118,251.904,293.846,252.636,294.753,252.636z"/>
	<path d="M0,0v485h485V0H0z M455,455H30V30h425V455z"/>
</g>
<g>
</g>
<g>
</g>
<g>
</g>
<g>
</g>
<g>
</g>
<g>
</g>
<g>
</g>
<g>
</g>
<g>
</g>
<g>
</g>
<g>
</g>
<g>
</g>
<g>
</g>
<g>
</g>
<g>
</g>
</svg>
