<?xml version="1.0" encoding="utf-8"?>
<!-- Generator: Adobe Illustrator 19.0.0, SVG Export Plug-In . SVG Version: 6.00 Build 0)  -->
<svg version="1.1" id="Capa_1" xmlns="http://www.w3.org/2000/svg" xmlns:xlink="http://www.w3.org/1999/xlink" x="0px" y="0px"
	 viewBox="0 103.516 500 292.969" enable-background="new 0 103.516 500 292.969" xml:space="preserve">
<path d="M470.703,235.352V132.813h-58.594v-29.297h-87.891v102.539H175.781V103.516H87.891v29.297H29.297v102.539H0v29.297h29.297
	v102.539h58.594v29.297h87.891V293.945h148.437v102.539h87.891v-29.297h58.594V264.648H500v-29.297H470.703z M87.891,337.891H58.594
	V162.109h29.297V337.891z M146.484,367.188h-29.297V132.813h29.297V367.188z M324.219,264.648H175.781v-29.297h148.437V264.648z
	 M382.813,367.188h-29.297V132.813h29.297V367.188z M441.406,337.891h-29.297V162.109h29.297V337.891z"/>
</svg>
