<?xml version="1.0" encoding="utf-8"?>
<!-- Generator: Adobe Illustrator 19.0.0, SVG Export Plug-In . SVG Version: 6.00 Build 0)  -->
<svg version="1.1" id="Capa_1" xmlns="http://www.w3.org/2000/svg" xmlns:xlink="http://www.w3.org/1999/xlink" x="0px" y="0px"
	 viewBox="0 0 31.834 31.834" enable-background="new 0 0 31.834 31.834" xml:space="preserve">
<path d="M21.202,25.787c0.15,0.305,0.304,0.607,0.441,0.919c-1.861,2.861-5.129,4.929-8.896,4.929
	c-5.835,0-10.551-4.797-10.551-10.599c0-4.02,2.521-7.48,5.775-9.246v2.791c-1.923,1.488-3.36,3.842-3.36,6.493
	c0,4.477,3.603,8.157,8.105,8.157c2.58,0,4.867-1.174,6.361-3.013C19.789,26.094,20.496,25.951,21.202,25.787z M9.323,3.745
	c0,2.068,1.686,3.745,3.766,3.745c2.08,0,3.766-1.677,3.766-3.745C16.854,1.677,15.169,0,13.089,0C11.009,0,9.323,1.677,9.323,3.745
	z M29.44,28.472l-3.933-9.1c-0.461-1.065-1.618-1.649-2.752-1.393l-7.921,1.824l-0.009-8.517c-0.002-1.33-1.08-2.43-2.409-2.43
	c0,0-0.002,0-0.003,0c-1.33,0-2.406,1.105-2.406,2.434l0.012,11.528c0,0.733,0.336,1.434,0.91,1.89
	c0.574,0.457,1.326,0.632,2.038,0.466l8.916-2.052l3.135,7.257c0.396,0.91,1.281,1.454,2.213,1.454c0.318,0,0.645-0.061,0.955-0.198
	C29.407,31.108,29.967,29.69,29.44,28.472z"/>
</svg>
