<?xml version="1.0" encoding="utf-8"?>
<!-- Generator: Adobe Illustrator 19.0.0, SVG Export Plug-In . SVG Version: 6.00 Build 0)  -->
<svg version="1.1" id="Capa_1" xmlns="http://www.w3.org/2000/svg" xmlns:xlink="http://www.w3.org/1999/xlink" x="0px" y="0px"
	 viewBox="0 42.136 500.001 415.73" enable-background="new 0 42.136 500.001 415.73" xml:space="preserve">
<path d="M486.96,339.482c-7.72-11.371-18.449-20.482-31.073-26.314L269.662,207.314v-33.291c10.719-3.27,20.332-9.117,28.006-16.809
	c12.168-12.135,19.759-29.106,19.747-47.663c0.011-18.557-7.578-35.534-19.747-47.669c-12.141-12.168-29.111-19.759-47.669-19.747
	c-18.557-0.011-35.534,7.578-47.669,19.747c-12.168,12.135-19.759,29.112-19.747,47.669h39.326
	c0.011-7.825,3.112-14.713,8.23-19.859c5.146-5.118,12.039-8.219,19.859-8.23c7.821,0.011,14.713,3.112,19.86,8.23
	c5.111,5.146,8.219,12.034,8.23,19.859c-0.012,7.82-3.119,14.713-8.23,19.859c-5.147,5.112-12.039,8.219-19.86,8.23h-19.663v69.663
	L41.275,314.545c-11.651,5.971-21.528,14.809-28.702,25.645C4.635,352.162-0.006,366.639,0,382.022
	c-0.011,20.882,8.522,39.96,22.214,53.63c13.663,13.69,32.748,22.225,53.63,22.214h348.313c20.882,0.011,39.967-8.522,53.63-22.214
	c13.696-13.668,22.225-32.748,22.214-53.63C500.005,366.33,495.185,351.584,486.96,339.482z M449.982,407.842
	c-6.675,6.636-15.674,10.686-25.825,10.696H75.843c-10.151-0.011-19.152-4.063-25.825-10.696
	c-6.641-6.669-10.68-15.668-10.691-25.82c0.006-7.512,2.214-14.332,6.033-20.117c3.82-5.775,9.275-10.428,15.629-13.26l-0.028-0.057
	L249.982,241.37c0,0,187.753,106.73,188.252,106.933c6.562,2.742,12.208,7.404,16.169,13.252c3.966,5.859,6.253,12.803,6.264,20.465
	C460.662,392.173,456.617,401.174,449.982,407.842z"/>
</svg>
