<?xml version="1.0" encoding="utf-8"?>
<!-- Generator: Adobe Illustrator 19.0.0, SVG Export Plug-In . SVG Version: 6.00 Build 0)  -->
<svg version="1.1" id="Capa_1" xmlns="http://www.w3.org/2000/svg" xmlns:xlink="http://www.w3.org/1999/xlink" x="0px" y="0px"
	 viewBox="0 106.069 500 287.86" enable-background="new 0 106.069 500 287.86" xml:space="preserve">
<path d="M452.632,170.959h27.332v-29.255H440.69l-14.545-35.635l-125.218,3.297l-0.206,0.007c-1.699,0.068-3.395,0.151-5.093,0.246
	c-34.069,1.91-67.466,9.235-99.26,21.77c-31.01,12.226-59.854,29.142-85.731,50.277c-25.871,21.132-48.143,45.963-66.195,73.805
	c-18.483,28.505-32.135,59.559-40.579,92.294C3.362,349.621,0,362.68,0,379.303v14.627h401.67L500,287.003L452.632,170.959z
	 M388.828,364.676H30.313c0.8-5.612,1.762-9.171,1.771-9.207l0.082-0.308c1.434-5.566,3.028-11.07,4.78-16.505h375.808
	L388.828,364.676z M48.201,309.4c18.157-40.441,45.606-76.215,80.942-105.076c48.216-39.384,106.351-62.031,168.119-65.495
	c1.513-0.084,3.027-0.158,4.544-0.221l104.895-2.763l59.196,145.021L439.658,309.4H48.201z M399.145,190.799l-3.826-9.376
	c-5.974-14.636-20.64-24.197-36.555-23.771l-55.748,1.468l-0.231,0.008c-19.966,0.843-39.852,3.954-59.102,9.249
	c-16.577,4.559-28.155,19.669-28.155,36.746c-0.001,21.012,17.203,38.107,38.35,38.107h109.729c12.841,0,24.765-6.337,31.896-16.949
	C402.563,215.773,403.926,202.508,399.145,190.799z M371.22,209.965c-0.811,1.206-3.174,4.011-7.614,4.011H253.877
	c-5.016,0-9.097-3.972-9.097-8.854c0-3.95,2.738-7.462,6.658-8.539c17.088-4.7,34.739-7.467,52.464-8.223l55.63-1.465
	c3.798-0.08,7.296,2.144,8.699,5.583l3.826,9.375C373.576,205.568,372.185,208.53,371.22,209.965z M136.019,249.789l20.686-20.686
	l20.686,20.686l-20.686,20.686L136.019,249.789z"/>
</svg>
