<?xml version="1.0" encoding="utf-8"?>
<!-- Generator: Adobe Illustrator 19.0.0, SVG Export Plug-In . SVG Version: 6.00 Build 0)  -->
<svg version="1.1" id="Capa_1" xmlns="http://www.w3.org/2000/svg" xmlns:xlink="http://www.w3.org/1999/xlink" x="0px" y="0px"
	 viewBox="159.603 67.907 80.463 79.98" enable-background="new 159.603 67.907 80.463 79.98" xml:space="preserve">
<path d="M173.605,90.259c0.36,0.36,0.54,0.786,0.54,1.278v10.906c0,0.493-0.18,0.919-0.54,1.279
	c-0.36,0.359-0.786,0.539-1.278,0.539h-10.906c-0.492,0-0.918-0.181-1.278-0.539c-0.36-0.36-0.54-0.786-0.54-1.279V91.537
	c0-0.492,0.18-0.918,0.54-1.278c0.36-0.36,0.786-0.539,1.278-0.539h10.906C172.819,89.72,173.246,89.899,173.605,90.259z
	 M172.327,133.345h-10.906c-0.492,0-0.918,0.179-1.278,0.538c-0.36,0.36-0.54,0.786-0.54,1.279v10.906
	c0,0.492,0.18,0.917,0.54,1.277c0.36,0.361,0.786,0.54,1.278,0.54h10.906c0.492,0,0.918-0.18,1.278-0.54
	c0.36-0.359,0.54-0.785,0.54-1.277v-10.906c0-0.493-0.18-0.919-0.54-1.279C173.246,133.524,172.819,133.345,172.327,133.345z
	 M172.327,111.531h-10.906c-0.492,0-0.918,0.181-1.278,0.54c-0.36,0.358-0.54,0.787-0.54,1.278v10.905c0,0.493,0.18,0.92,0.54,1.279
	c0.36,0.359,0.786,0.538,1.278,0.538h10.906c0.492,0,0.918-0.178,1.278-0.538c0.36-0.359,0.54-0.786,0.54-1.279V113.35
	c0-0.491-0.18-0.918-0.54-1.278C173.246,111.712,172.819,111.531,172.327,111.531z M172.327,67.907h-10.906
	c-0.492,0-0.918,0.18-1.278,0.54c-0.36,0.36-0.54,0.786-0.54,1.278v10.906c0,0.492,0.18,0.918,0.54,1.278
	c0.36,0.36,0.786,0.539,1.278,0.539h10.906c0.492,0,0.918-0.18,1.278-0.539c0.36-0.36,0.54-0.786,0.54-1.278V69.725
	c0-0.493-0.18-0.918-0.54-1.278C173.246,68.087,172.819,67.907,172.327,67.907z M238.248,133.345h-55.015
	c-0.492,0-0.918,0.179-1.278,0.538c-0.36,0.36-0.54,0.786-0.54,1.279v10.906c0,0.492,0.18,0.917,0.54,1.277
	c0.36,0.361,0.785,0.541,1.278,0.541h55.015c0.493,0,0.919-0.18,1.279-0.541c0.36-0.36,0.539-0.785,0.539-1.277v-10.906
	c0-0.493-0.18-0.919-0.539-1.279C239.167,133.524,238.742,133.345,238.248,133.345z M238.248,111.531h-55.015
	c-0.492,0-0.918,0.181-1.278,0.54c-0.36,0.358-0.54,0.787-0.54,1.278v10.905c0,0.493,0.18,0.92,0.54,1.279
	c0.36,0.359,0.785,0.538,1.278,0.538h55.015c0.493,0,0.919-0.178,1.279-0.538c0.36-0.359,0.539-0.786,0.539-1.279V113.35
	c0-0.491-0.18-0.918-0.539-1.278C239.167,111.712,238.742,111.531,238.248,111.531z M239.528,68.446
	c-0.36-0.359-0.786-0.54-1.279-0.54h-55.015c-0.492,0-0.918,0.18-1.278,0.54c-0.36,0.36-0.54,0.786-0.54,1.278v10.906
	c0,0.492,0.18,0.918,0.54,1.278c0.36,0.36,0.785,0.539,1.278,0.539h55.015c0.493,0,0.919-0.18,1.279-0.539
	c0.36-0.36,0.539-0.786,0.539-1.278V69.725C240.067,69.232,239.887,68.806,239.528,68.446z M238.248,89.72h-55.015
	c-0.492,0-0.918,0.179-1.278,0.539c-0.36,0.36-0.54,0.786-0.54,1.278v10.906c0,0.493,0.18,0.919,0.54,1.279
	c0.36,0.358,0.785,0.539,1.278,0.539h55.015c0.493,0,0.919-0.18,1.279-0.539c0.36-0.36,0.539-0.786,0.539-1.279V91.537
	c0-0.492-0.18-0.918-0.539-1.278C239.167,89.899,238.742,89.72,238.248,89.72z"/>
</svg>
