<?xml version="1.0" encoding="utf-8"?>
<!-- Generator: Adobe Illustrator 19.0.0, SVG Export Plug-In . SVG Version: 6.00 Build 0)  -->
<svg version="1.1" id="Layer_1" xmlns="http://www.w3.org/2000/svg" xmlns:xlink="http://www.w3.org/1999/xlink" x="0px" y="0px"
	 viewBox="10.84 10.742 478.516 478.516" enable-background="new 10.84 10.742 478.516 478.516" xml:space="preserve">
<path d="M112.109,163.965h275.879c11.035,0,19.922-8.887,19.922-19.922c0-11.035-8.887-19.922-19.922-19.922h-10.938
	c-10.254-43.555-52.539-87.207-107.227-95.898c-1.27-9.863-9.57-17.48-19.727-17.48c-10.156,0-18.555,7.617-19.727,17.383
	c-54.688,8.691-96.973,52.344-107.227,95.898h-10.937c-11.035,0-19.922,8.887-19.922,19.922
	C92.188,154.981,101.172,163.965,112.109,163.965L112.109,163.965z M250.098,66.504c40.43,0,74.414,28.125,85.645,57.617H164.453
	C175.684,94.629,209.668,66.504,250.098,66.504L250.098,66.504z M469.434,258.887c11.035,0,19.922-8.887,19.922-19.922
	c0-11.035-8.887-19.922-19.922-19.922H30.762c-11.035,0-19.922,8.887-19.922,19.922c0,11.035,8.887,19.922,19.922,19.922h40.137
	v103.223c-26.172,8.398-45.215,33.105-45.215,62.012c0,35.938,29.199,65.137,65.234,65.137c35.938,0,65.137-29.199,65.137-65.137
	c0-29.004-19.043-53.613-45.215-62.012V258.887h278.613v103.223c-26.172,8.398-45.215,33.105-45.215,62.012
	c0,35.938,29.199,65.137,65.137,65.137s65.234-29.199,65.234-65.137c0-29.004-19.043-53.613-45.215-62.012V258.887H469.434
	L469.434,258.887z M90.82,449.414c-13.965,0-25.293-11.328-25.293-25.293c0-13.965,11.328-25.293,25.293-25.293
	c13.965,0,25.293,11.328,25.293,25.293C116.113,437.988,104.785,449.414,90.82,449.414z M409.375,449.414
	c-13.965,0-25.293-11.328-25.293-25.293c0-13.965,11.328-25.293,25.293-25.293c13.965,0,25.293,11.328,25.293,25.293
	C434.668,437.988,423.34,449.414,409.375,449.414z"/>
</svg>
