<?xml version="1.0" encoding="utf-8"?>
<!-- Generator: Adobe Illustrator 19.0.0, SVG Export Plug-In . SVG Version: 6.00 Build 0)  -->
<svg version="1.1" id="Layer_1" xmlns="http://www.w3.org/2000/svg" xmlns:xlink="http://www.w3.org/1999/xlink" x="0px" y="0px"
	 viewBox="0 0 701.398 620.612" enable-background="new 0 0 701.398 620.612" xml:space="preserve">
<path fill="#424242" d="M394.524,44.331h-87.672v69.376l31.65-21.326c7.363-4.921,16.967-4.921,24.327,0l31.695,21.326V44.331z
	 M591.786,265.978c-12.097,0-21.918-9.933-21.918-22.169V44.331H438.362v110.824c0,8.201-4.474,15.692-11.573,19.499
	c-3.243,1.774-6.795,2.663-10.348,2.663c-4.25,0-8.459-1.241-12.142-3.727l-53.611-36.124l-53.567,36.124
	c-6.794,4.524-15.387,4.966-22.533,1.063c-7.101-3.807-11.573-11.298-11.573-19.499V44.331H131.508v155.148
	c0,12.236-9.819,22.168-21.917,22.168c-12.101,0-21.919-9.932-21.919-22.168V22.163C87.672,9.932,97.491,0,109.591,0h482.195
	c12.101,0,21.921,9.932,21.921,22.163v221.646C613.707,256.045,603.887,265.978,591.786,265.978z M653.025,341.29
	c-3.769-4.916-9.029-7.932-14.947-8.686c-5.566-0.535-11.178,0.888-15.604,4.433l-156.19,122.435
	c-22.75,18.091-51.373,28.15-80.526,28.15H241.098c-12.096,0-21.917-9.927-21.917-22.163c0-12.237,9.821-22.164,21.917-22.164
	c52.91,0,97.229-38.122,107.399-88.616l-216.989-0.043v177.316h291.949c14.203,0,28.493-4.966,40.109-14.006l185.339-145.757
	c4.779-3.77,7.761-9.089,8.504-15.025C658.066,351.443,656.533,345.815,653.025,341.29z M87.672,310.302H43.836V576.28h43.836
	V310.302z M700.894,362.659c-2.189,17.775-11.133,33.599-25.161,44.551L490.35,553.011c-19.33,15.026-43.047,23.27-66.893,23.27
	H131.508v22.164c0,12.236-9.819,22.168-21.917,22.168H21.919C9.819,620.612,0,610.681,0,598.444V288.142
	c0-12.237,9.819-22.163,21.919-22.163h87.672c12.098,0,21.917,9.926,21.917,22.163v22.161l241.099,0.045
	c12.098,0,21.917,9.932,21.917,22.168c0,43.398-17.84,82.582-46.377,110.778h37.609c19.332,0,38.357-6.653,53.48-18.706
	l156.189-122.486c13.547-10.725,30.596-15.78,48-13.475c17.535,2.177,33.273,11.17,44.143,25.357
	C698.265,327.727,703.043,345.059,700.894,362.659z"/>
</svg>
