<?xml version="1.0" encoding="utf-8"?>
<!-- Generator: Adobe Illustrator 19.0.0, SVG Export Plug-In . SVG Version: 6.00 Build 0)  -->
<svg version="1.1" id="Layer_1" xmlns="http://www.w3.org/2000/svg" xmlns:xlink="http://www.w3.org/1999/xlink" x="0px" y="0px"
	 viewBox="0 0 500 500" enable-background="new 0 0 500 500" xml:space="preserve">
<path d="M426.758,0H73.242C32.856,0,0,32.856,0,73.242v353.516C0,467.144,32.856,500,73.242,500h353.516
	C467.144,500,500,467.144,500,426.758V73.242C500,32.856,467.144,0,426.758,0z M470.703,426.758
	c0,24.231-19.714,43.945-43.945,43.945H73.242c-24.232,0-43.945-19.714-43.945-43.945V73.242c0-24.231,19.714-43.945,43.945-43.945
	h353.516c24.232,0,43.945,19.714,43.945,43.945V426.758z M279.297,88.867H162.109c-8.09,0-14.648,6.559-14.648,14.648v293.945
	c0,8.09,6.559,14.648,14.648,14.648h58.594c8.09,0,14.648-6.559,14.648-14.648V293.945h43.945
	c56.54,0,102.539-45.999,102.539-102.539C381.836,134.866,335.837,88.867,279.297,88.867z M279.297,264.648h-58.594
	c-8.09,0-14.648,6.559-14.648,14.648v103.516h-29.297V118.164h102.539c40.386,0,73.242,32.856,73.242,73.242
	C352.539,231.792,319.683,264.648,279.297,264.648z M279.297,147.461h-58.594c-8.09,0-14.648,6.559-14.648,14.648v58.594
	c0,8.09,6.559,14.648,14.648,14.648h58.594c24.231,0,43.945-19.714,43.945-43.945C323.242,167.175,303.528,147.461,279.297,147.461z
	 M279.297,206.055h-43.945v-29.297h43.945c8.077,0,14.648,6.571,14.648,14.648C293.945,199.483,287.374,206.055,279.297,206.055z"/>
</svg>
