<?xml version="1.0" encoding="utf-8"?>
<!-- Generator: Adobe Illustrator 19.0.0, SVG Export Plug-In . SVG Version: 6.00 Build 0)  -->
<svg version="1.1" id="Capa_1" xmlns="http://www.w3.org/2000/svg" xmlns:xlink="http://www.w3.org/1999/xlink" x="0px" y="0px"
	 viewBox="8.237 0 483.525 500" enable-background="new 8.237 0 483.525 500" xml:space="preserve">
<path d="M403.129,352.242c-5.175-8.152-43.102-67.234-75.518-98.486c-27.046-25.967-67.525-26.719-72.114-26.719
	c-0.418,0.002-0.837,0.018-1.248,0.05h-9.814c-4.336,0-43.183,0.739-71.596,26.315c-35.056,31.593-73.845,95.313-76.559,99.804
	c-20.548,32.489-33.142,53.618-33.142,77.11c0,42.33,31.016,69.684,79.015,69.684h215.711c47.986,0,78.993-27.379,78.993-69.754
	c0-23.699-12.624-44.799-33.228-77.256C403.468,352.736,403.302,352.485,403.129,352.242z M357.863,467.221H142.152
	c-17.268,0-46.236-4.794-46.236-36.904c0-13.722,9.017-29.478,28.157-59.732c0.063-0.102,0.127-0.203,0.19-0.307
	c0.382-0.633,38.528-63.691,70.512-92.516c19.503-17.557,49.381-17.891,49.671-17.893h11.102c0.313,0,0.62-0.01,0.931-0.027
	c5.334,0.201,32.208,1.982,48.408,17.535c31.212,30.096,70.637,92.54,71.032,93.168c0.177,0.281,0.36,0.555,0.553,0.82
	c20.358,32.12,27.606,45.931,27.606,58.876C404.077,460.805,378.944,467.221,357.863,467.221z M170.884,187.346
	c36.995,0,65.971-41.151,65.971-93.683C236.858,41.142,207.879,0,170.884,0c-36.99,0-65.967,41.142-65.967,93.663
	C104.917,146.197,133.894,187.346,170.884,187.346z M170.884,32.779c15.699,0,33.192,25.004,33.192,60.884
	c0,35.891-17.495,60.904-33.192,60.904s-33.19-25.013-33.19-60.904C137.696,57.783,155.188,32.779,170.884,32.779z M84.492,300.029
	c6.449,0,12.609-1.326,18.385-3.977c28.762-13.374,36.771-55.347,18.225-95.564c-14.39-31.145-41.011-52.069-66.249-52.069
	c-6.455,0-12.624,1.331-18.358,3.971C7.692,165.718-0.343,207.7,18.208,247.987c14.39,31.127,41.026,52.04,66.28,52.042H84.492z
	 M47.971,234.255c-11.092-24.09-7.943-47.383,2.257-52.101c1.396-0.643,2.906-0.955,4.622-0.955
	c10.292,0,26.577,11.578,36.487,33.026c11.093,24.056,7.943,47.351-2.209,52.07c-1.403,0.643-2.92,0.958-4.64,0.958
	C74.184,267.25,57.879,255.678,47.971,234.255z M329.083,187.346c36.981,0,65.951-41.151,65.951-93.683
	C395.034,41.142,366.064,0,329.083,0c-37.017,0-66.011,41.142-66.011,93.663C263.072,146.197,292.066,187.346,329.083,187.346z
	 M329.083,32.779c15.69,0,33.173,25.004,33.173,60.884c0,35.891-17.483,60.904-33.173,60.904c-15.717,0-33.231-25.013-33.231-60.904
	C295.852,57.783,313.366,32.779,329.083,32.779z M463.506,152.395c-5.719-2.648-11.903-3.992-18.38-3.992
	c-25.201,0-51.814,20.93-66.212,52.068c-18.63,40.2-10.627,82.189,18.286,95.619c5.701,2.615,11.864,3.941,18.313,3.941
	c25.26,0,51.89-20.917,66.267-52.057C500.346,207.715,492.314,165.729,463.506,152.395z M452.016,234.24
	c-9.899,21.442-26.195,33.01-36.503,33.01c-1.722,0-3.238-0.313-4.573-0.924c-10.263-4.766-13.42-28.048-2.279-52.086
	c9.93-21.475,26.197-33.061,36.466-33.061c1.706,0,3.212,0.313,4.603,0.957C459.966,186.878,463.117,210.169,452.016,234.24z"/>
</svg>
