<?xml version="1.0" encoding="utf-8"?>
<!-- Generator: Adobe Illustrator 19.0.0, SVG Export Plug-In . SVG Version: 6.00 Build 0)  -->
<svg version="1.1" id="Capa_1" xmlns="http://www.w3.org/2000/svg" xmlns:xlink="http://www.w3.org/1999/xlink" x="0px" y="0px"
	 viewBox="0 0 500 500" enable-background="new 0 0 500 500" xml:space="preserve">
<path d="M382.326,65.43V0h-29.297v65.43H146.971V0h-29.297v65.43H0V500h500V65.43H382.326z M382.326,94.727h88.377v206.624
	c-10.258,2.311-17.075,6.815-22.873,10.664c-6.641,4.408-11.026,7.321-21.315,7.321c-10.289,0-14.676-2.912-21.316-7.321
	c-5.797-3.849-12.615-8.353-22.872-10.664V94.727z M146.971,94.727h206.059v48.828H146.971V94.727z M146.971,172.852h206.059v48.828
	H146.971V172.852z M146.971,250.977h206.059v50.374c-10.258,2.311-17.075,6.815-22.873,10.664
	c-6.642,4.409-11.028,7.321-21.319,7.321c-10.29,0-14.677-2.912-21.318-7.321c-8.194-5.439-18.393-12.21-37.522-12.21
	c-19.129,0-29.327,6.77-37.52,12.21c-6.641,4.408-11.027,7.321-21.317,7.321c-10.289,0-14.676-2.912-21.315-7.321
	c-5.797-3.849-12.615-8.353-22.872-10.664V250.977L146.971,250.977z M29.298,94.727h88.376v206.624
	c-10.257,2.311-17.075,6.815-22.873,10.664c-6.64,4.409-11.026,7.321-21.315,7.321c-10.289,0-14.676-2.912-21.315-7.321
	c-5.798-3.849-12.615-8.353-22.872-10.664V94.727z M29.297,332.318c2.184,1.132,4.28,2.52,6.668,4.105
	c8.193,5.439,18.392,12.21,37.521,12.21c19.129,0,29.326-6.771,37.521-12.21c6.64-4.409,11.026-7.321,21.316-7.321
	c10.289,0,14.676,2.912,21.315,7.321c8.194,5.44,18.392,12.21,37.52,12.21s29.327-6.771,37.521-12.21
	c6.641-4.408,11.027-7.321,21.317-7.321c10.291,0,14.678,2.912,21.319,7.321c8.194,5.439,18.392,12.21,37.521,12.21
	c19.131,0,29.328-6.771,37.523-12.21c6.642-4.408,11.028-7.321,21.318-7.321c10.289,0,14.676,2.912,21.315,7.321
	c8.194,5.439,18.392,12.21,37.521,12.21c19.129,0,29.326-6.771,37.521-12.21c2.387-1.585,4.484-2.972,6.668-4.105V386.8
	c-10.258,2.311-17.075,6.815-22.873,10.664c-6.641,4.408-11.026,7.321-21.315,7.321c-10.289,0-14.676-2.912-21.316-7.321
	c-8.194-5.44-18.392-12.21-37.52-12.21c-19.13,0-29.327,6.771-37.521,12.21c-6.642,4.409-11.028,7.321-21.319,7.321
	c-10.29,0-14.677-2.912-21.318-7.321c-8.194-5.44-18.393-12.21-37.522-12.21c-19.129,0-29.327,6.771-37.52,12.21
	c-6.641,4.408-11.027,7.321-21.317,7.321c-10.289,0-14.676-2.912-21.315-7.321c-8.194-5.44-18.392-12.21-37.52-12.21
	s-29.327,6.771-37.521,12.21c-6.64,4.408-11.027,7.321-21.316,7.321c-10.289,0-14.676-2.912-21.315-7.321
	c-5.798-3.849-12.615-8.353-22.872-10.664V332.318z M470.704,470.703H29.297v-52.935c2.184,1.132,4.28,2.52,6.668,4.104
	c8.194,5.44,18.392,12.21,37.521,12.21c19.129,0,29.326-6.771,37.521-12.21c6.641-4.408,11.027-7.321,21.317-7.321
	c10.289,0,14.676,2.912,21.316,7.321c8.194,5.44,18.392,12.21,37.52,12.21s29.327-6.771,37.52-12.21
	c6.641-4.408,11.027-7.321,21.317-7.321c10.291,0,14.678,2.912,21.319,7.321c8.194,5.439,18.392,12.21,37.521,12.21
	c19.131,0,29.328-6.771,37.522-12.21c6.642-4.408,11.028-7.321,21.318-7.321c10.289,0,14.676,2.912,21.315,7.321
	c8.194,5.439,18.392,12.21,37.522,12.21c19.129,0,29.326-6.771,37.521-12.21c2.387-1.585,4.484-2.972,6.668-4.104V470.703
	L470.704,470.703z"/>
</svg>
