<?xml version="1.0" encoding="utf-8"?>
<!-- Generator: Adobe Illustrator 19.0.0, SVG Export Plug-In . SVG Version: 6.00 Build 0)  -->
<svg version="1.1" id="Capa_1" xmlns="http://www.w3.org/2000/svg" xmlns:xlink="http://www.w3.org/1999/xlink" x="0px" y="0px"
	 viewBox="43.626 66.185 406.096 360.978" enable-background="new 43.626 66.185 406.096 360.978" xml:space="preserve">
<path d="M94.977,74.998c5.873,5.879,8.809,12.97,8.809,21.271c0,5.48-1.37,10.498-4.112,15.04
	c-2.741,4.544-6.383,8.146-10.927,10.811v297.525c0,2.194-0.704,3.998-2.114,5.406c-1.408,1.41-3.211,2.112-5.405,2.112h-15.04
	c-2.196,0-3.996-0.702-5.406-2.112c-1.412-1.408-2.115-3.212-2.115-5.406V122.119c-4.542-2.664-8.186-6.267-10.926-10.811
	c-2.744-4.542-4.114-9.557-4.114-15.04c0-8.304,2.939-15.394,8.813-21.271c5.876-5.869,12.966-8.813,21.271-8.813
	C82.01,66.185,89.101,69.126,94.977,74.998z M449.722,111.308v179.318c0,6.111-2.746,10.574-8.228,13.395
	c-1.566,0.786-2.896,1.489-3.996,2.116c-34.153,18.173-63.059,27.262-86.721,27.262c-13.783,0-26.16-2.745-37.125-8.231l-6.58-3.29
	c-10.031-5.172-17.786-8.931-23.266-11.282c-5.48-2.346-12.613-4.622-21.385-6.814c-8.772-2.194-17.707-3.29-26.791-3.29
	c-15.98,0-34.429,3.447-55.348,10.34c-20.916,6.894-38.814,14.887-53.698,23.976c-2.348,1.405-4.935,2.109-7.753,2.109
	c-2.508,0-5.015-0.622-7.521-1.879c-5.013-2.975-7.52-7.364-7.52-13.16V147.501c0-5.484,2.43-9.793,7.287-12.925
	c5.481-3.292,11.63-6.618,18.45-9.987c6.812-3.369,15.746-7.442,26.79-12.222c11.045-4.775,22.994-8.653,35.841-11.629
	c12.845-2.977,24.989-4.466,36.426-4.466c17.546,0,33.918,2.43,49.116,7.283c15.197,4.858,31.572,11.596,49.116,20.213
	c5.95,2.976,12.927,4.465,20.918,4.465c19.116,0,43.398-8.775,72.852-26.322c3.445-1.88,5.876-3.209,7.281-3.996
	c4.865-2.505,9.721-2.351,14.579,0.468C447.298,101.519,449.725,105.825,449.722,111.308z M419.642,281.698V136.927
	c-26.478,14.255-50.451,21.386-71.916,21.386c-12.845,0-24.207-2.507-34.071-7.521c-15.671-7.674-30.087-13.669-43.246-17.976
	c-13.156-4.309-27.099-6.464-41.828-6.464c-27.102,0-58.673,9.949-94.711,29.849v140.777c38.388-17.708,72.304-26.56,101.76-26.56
	c8.62,0,16.729,0.586,24.326,1.761c7.597,1.175,15.272,3.212,23.031,6.11c7.749,2.897,13.786,5.323,18.091,7.285
	c4.306,1.96,10.771,5.053,19.391,9.284l6.577,3.289c6.898,3.445,14.809,5.17,23.738,5.17
	C369.585,303.315,392.537,296.109,419.642,281.698L419.642,281.698z"/>
</svg>
