<?xml version="1.0" encoding="utf-8"?>
<!-- Generator: Adobe Illustrator 19.0.0, SVG Export Plug-In . SVG Version: 6.00 Build 0)  -->
<svg version="1.1" id="Capa_1" xmlns="http://www.w3.org/2000/svg" xmlns:xlink="http://www.w3.org/1999/xlink" x="0px" y="0px"
	 viewBox="0 0 500 500" enable-background="new 0 0 500 500" xml:space="preserve">
<path d="M485.352,324.219H500V146.484H381.018C374.241,85.47,325.663,36.891,264.648,30.115V0h-29.297v30.115
	c-61.015,6.775-109.593,55.354-116.369,116.369H0v177.734h14.648c5.016,0,9.912-0.511,14.648-1.473v91.883
	C12.247,420.676,0,436.958,0,456.055C0,480.286,19.714,500,43.945,500c24.232,0,43.945-19.714,43.945-43.945
	c0-19.097-12.247-35.379-29.297-41.426v-31.816h382.812v31.816c-17.05,6.047-29.297,22.329-29.297,41.426
	c0,24.231,19.714,43.945,43.945,43.945C480.286,500,500,480.286,500,456.055c0-19.097-12.247-35.379-29.297-41.426v-91.888
	C475.438,323.706,480.336,324.219,485.352,324.219z M250,58.594c51.567,0,94.358,38.266,101.488,87.891H148.512
	C155.642,96.859,198.434,58.594,250,58.594z M43.945,470.703c-8.077,0-14.648-6.571-14.648-14.648
	c0-8.077,6.571-14.648,14.648-14.648c8.077,0,14.648,6.571,14.648,14.648C58.594,464.132,52.022,470.703,43.945,470.703z
	 M58.594,353.516v-43.909c5.656-4.229,10.688-9.251,14.923-14.902c13.421,17.906,34.814,29.515,58.869,29.515
	c24.055,0,45.448-11.608,58.868-29.515c13.42,17.906,34.814,29.515,58.868,29.515c24.055,0,45.448-11.608,58.868-29.515
	c13.42,17.906,34.814,29.515,58.869,29.515c24.018,0,45.384-11.574,58.808-29.433c4.188,5.591,9.155,10.565,14.74,14.762v43.968
	h-0.001H58.594z M456.055,470.703c-8.077,0-14.648-6.571-14.648-14.648c0-8.077,6.571-14.648,14.648-14.648
	c8.077,0,14.648,6.571,14.648,14.648C470.703,464.132,464.132,470.703,456.055,470.703z M441.376,250.977v-0.244h-29.297
	c0,24.366-19.837,44.189-44.22,44.189c-24.383,0-44.22-19.823-44.22-44.189h-29.297c0,24.366-19.837,44.189-44.22,44.189
	c-24.383,0-44.22-19.823-44.22-44.189h-29.297c0,24.366-19.837,44.189-44.22,44.189s-44.22-19.823-44.22-44.189H58.87
	c0,19.238-12.365,35.645-29.571,41.697V175.781h441.404v116.635C453.635,286.373,441.376,270.078,441.376,250.977z"/>
</svg>
