<?xml version="1.0" encoding="utf-8"?>
<!-- Generator: Adobe Illustrator 19.0.0, SVG Export Plug-In . SVG Version: 6.00 Build 0)  -->
<svg version="1.1" id="Layer_1" xmlns="http://www.w3.org/2000/svg" xmlns:xlink="http://www.w3.org/1999/xlink" x="0px" y="0px"
	 viewBox="0 13.268 500 473.465" enable-background="new 0 13.268 500 473.465" xml:space="preserve">
<path d="M444.313,54.745l-93.095,93.092c-1.754,1.753-4.053,2.629-6.35,2.629c-2.299,0-4.596-0.876-6.35-2.629
	c-3.507-3.508-3.507-9.191,0.001-12.698l93.095-93.092c3.508-3.507,9.191-3.504,12.698,0
	C447.818,45.553,447.818,51.237,444.313,54.745z M469.629,66.964c-3.508-3.505-9.191-3.505-12.698,0l-93.094,93.094
	c-3.506,3.508-3.506,9.191-0.001,12.698c1.754,1.753,4.053,2.629,6.35,2.629c2.297,0,4.596-0.876,6.35-2.629l93.094-93.095
	C473.136,76.154,473.136,70.47,469.629,66.964z M313.549,239.602l-29.116,32.805l148.819,132.09
	c1.003,0.856,1.912,1.691,2.771,2.554c18.198,18.201,18.198,47.822-0.005,66.028c-9.104,9.103-21.062,13.654-33.02,13.654
	c-11.957,0-23.914-4.551-33.017-13.653c-0.856-0.854-1.691-1.763-2.548-2.768l-129.33-145.711L108.776,470.31
	c-0.857,1.004-1.692,1.912-2.555,2.772c-9.098,9.099-21.057,13.648-33.011,13.648c-11.959,0.001-23.915-4.551-33.02-13.653
	c-8.819-8.819-13.676-20.546-13.676-33.017c0-12.473,4.857-24.198,13.677-33.018c0.846-0.847,1.753-1.684,2.767-2.548
	l106.031-94.111c3.707-3.294,9.383-2.955,12.675,0.755c3.291,3.708,2.954,9.383-0.755,12.675L54.809,417.986
	c-0.049,0.043-0.098,0.086-0.148,0.128c-0.663,0.564-1.239,1.091-1.761,1.615c-5.438,5.438-8.427,12.654-8.427,20.33
	s2.989,14.893,8.417,20.32c11.201,11.204,29.434,11.205,40.64,0c0.535-0.536,1.063-1.113,1.623-1.771
	c0.042-0.05,0.085-0.1,0.128-0.148l169.716-191.208c0.016-0.017,0.027-0.036,0.043-0.054c0.016-0.018,0.033-0.032,0.049-0.049
	l39.267-44.241c2.657-2.994,6.972-3.866,10.585-2.142c18.163,8.674,39.933,4.938,54.17-9.298L484.672,95.905
	c3.507-3.507,9.19-3.504,12.698,0c3.507,3.507,3.507,9.19,0,12.698L381.806,224.168C363.833,242.138,337.14,247.96,313.549,239.602z
	 M272.51,285.835l-22.401,25.239l130.817,147.385c0.043,0.049,0.086,0.099,0.128,0.148c0.56,0.657,1.09,1.235,1.62,1.766
	c11.209,11.209,29.44,11.209,40.646,0.005c11.203-11.203,11.203-29.435-0.001-40.64c-0.536-0.535-1.113-1.064-1.77-1.623
	c-0.05-0.042-0.1-0.085-0.148-0.128L272.51,285.835z M417.362,28.595L301.799,144.159c-14.237,14.235-17.974,36.003-9.298,54.168
	c1.724,3.611,0.851,7.928-2.142,10.585l-79.947,70.961c-1.71,1.518-3.837,2.264-5.957,2.264c-2.479,0-4.944-1.019-6.719-3.018
	c-0.424-0.479-33.847-38.133-33.847-38.133c-34.779,17.676-77.004,11.224-105.045-16.819
	c-27.851-27.849-47.449-60.107-55.186-90.828c-8.075-32.071-2.685-59.573,15.181-77.438c17.865-17.864,45.363-23.254,77.437-15.181
	c30.724,7.735,62.981,27.334,90.831,55.184c28.041,28.042,34.493,70.268,16.818,105.045l34.178,30.336l35.562-31.564
	c-8.358-23.596-2.538-50.286,15.437-68.259L404.664,15.897c3.507-3.505,9.19-3.505,12.698,0
	C420.869,19.403,420.869,25.087,417.362,28.595z M224.576,243.29L186.6,209.583c-3.261-2.895-3.971-7.716-1.682-11.428
	c17.752-28.787,13.432-65.613-10.51-89.554c-25.588-25.59-54.894-43.512-82.518-50.467C66.191,51.664,44.756,55.379,31.538,68.6
	c-13.22,13.219-16.937,34.654-10.467,60.355c6.956,27.624,24.879,56.928,50.469,82.517c23.941,23.942,60.768,28.262,89.555,10.511
	c3.711-2.292,8.533-1.579,11.428,1.682l32.684,36.822L224.576,243.29z"/>
</svg>
