<?xml version="1.0" encoding="utf-8"?>
<!-- Generator: Adobe Illustrator 19.0.0, SVG Export Plug-In . SVG Version: 6.00 Build 0)  -->
<svg version="1.1" id="Capa_1" xmlns="http://www.w3.org/2000/svg" xmlns:xlink="http://www.w3.org/1999/xlink" x="0px" y="0px"
	 viewBox="51.171 51.972 354.122 342.028" enable-background="new 51.171 51.972 354.122 342.028" xml:space="preserve">
<path d="M386.844,175.998c-9.393-8.051-21.264-12.489-33.34-12.489h-11.251H301.79h-19.198v-50.062
	c0-23.947-7.123-41.392-21.264-51.817c-22.296-16.309-52.54-7.122-53.881-6.709c-5.161,1.651-8.67,6.399-8.67,11.767v60.384
	c0,18.374-8.774,33.959-26.218,46.45c-13.212,9.496-26.734,13.831-28.489,14.348l-1.239,0.309
	c-4.645-5.264-11.458-8.566-19.096-8.566H76.666c-14.038,0-25.496,11.457-25.496,25.495v154.418
	c0,14.038,11.458,25.495,25.496,25.495h47.275c6.193,0,11.974-2.271,16.309-5.986c9.497,9.29,22.399,14.967,36.334,14.967h46.965
	h4.851h96.099c14.863,0,27.973-3.612,37.985-10.322c12.799-8.67,20.747-22.398,23.018-39.946l19.096-118.703
	C407.591,206.654,400.778,187.869,386.844,175.998z M124.664,359.524c0,0.413-0.31,0.723-0.723,0.723H76.666
	c-0.413,0-0.723-0.31-0.723-0.723V205.106c0-0.413,0.31-0.723,0.723-0.723h47.275c0.413,0,0.723,0.31,0.723,0.723V359.524z
	 M380.135,221.209l-19.096,118.91c0,0.103,0,0.31-0.104,0.516c-0.826,7.122-3.51,28.695-36.436,28.695H228.4h-4.851h-46.965
	c-13.212,0-24.773-9.909-26.837-23.018c-0.104-0.517-0.207-1.032-0.31-1.445V212.125l0.722-0.206c0.206,0,0.31-0.103,0.516-0.103
	c0.723-0.207,18.27-5.162,35.714-17.651c24.257-17.237,37.16-40.462,37.16-67.093V76.907c6.813-0.723,16.206-0.413,23.121,4.645
	c7.433,5.471,11.148,16.205,11.148,31.792v62.448c0,6.813,5.574,12.386,12.387,12.386h31.585h40.463h11.251
	c6.193,0,12.283,2.375,17.237,6.504C378.174,201.081,381.683,211.196,380.135,221.209z"/>
</svg>
