<?xml version="1.0" encoding="iso-8859-1"?>
<!-- Generator: Adobe Illustrator 19.0.0, SVG Export Plug-In . SVG Version: 6.00 Build 0)  -->
<svg version="1.1" id="Capa_1" xmlns="http://www.w3.org/2000/svg" xmlns:xlink="http://www.w3.org/1999/xlink" x="0px" y="0px"
	 viewBox="0 52.084 499.997 395.83" style="enable-background:new 0 52.084 499.997 395.83;" xml:space="preserve">
<path style="fill:#070906;" d="M458.334,114.583H333.333V93.75c0-23.011-18.655-41.666-41.665-41.666h-83.336
	c-23.011,0-41.666,18.655-41.666,41.666v20.833h-125C18.655,114.583,0,133.241,0,156.249v249.999
	c0,23.01,18.655,41.666,41.666,41.666h416.665c23.011,0,41.666-18.656,41.666-41.666V156.249
	C500,133.241,481.345,114.583,458.334,114.583z M187.499,93.75c0-11.511,9.323-20.833,20.833-20.833h83.332
	c11.512,0,20.834,9.322,20.834,20.833v20.833H187.499V93.75z M83.335,427.083H41.666c-11.511,0-20.833-9.322-20.833-20.833V156.249
	c0-11.511,9.322-20.833,20.833-20.833h41.666v291.667H83.335z M395.832,427.083H104.167V135.416h62.499h20.833H312.5h20.833h62.499
	V427.083L395.832,427.083z M479.167,406.25c0,11.511-9.322,20.833-20.833,20.833h-41.666V135.416h41.666
	c11.511,0,20.833,9.322,20.833,20.833V406.25z M249.998,239.584c-23.011,0-41.666,18.655-41.666,41.666
	c0,23.01,18.655,41.666,41.666,41.666c23.011,0,41.666-18.656,41.666-41.666C291.664,258.238,273.01,239.584,249.998,239.584z
	 M249.998,302.082c-11.51,0-20.833-9.322-20.833-20.832c0-11.512,9.323-20.834,20.833-20.834c11.511,0,20.834,9.322,20.834,20.834
	C270.832,292.76,261.51,302.082,249.998,302.082z"/>
</svg>
