<?xml version="1.0" encoding="utf-8"?>
<!-- Generator: Adobe Illustrator 19.0.0, SVG Export Plug-In . SVG Version: 6.00 Build 0)  -->
<svg version="1.1" id="Capa_1" xmlns="http://www.w3.org/2000/svg" xmlns:xlink="http://www.w3.org/1999/xlink" x="0px" y="0px"
	 viewBox="0 33.824 310.247 242.601" enable-background="new 0 33.824 310.247 242.601" xml:space="preserve">
<path d="M185.475,246.104c0,16.759-13.561,30.321-30.322,30.321c-16.762,0-30.326-13.563-30.326-30.321
	c0-16.765,13.564-30.327,30.326-30.327C171.912,215.777,185.475,229.339,185.475,246.104z M85.347,187.728l23.249,19.494
	c23.188-27.694,69.979-27.694,93.138,0.023l23.279-19.431c-17.385-20.782-42.854-32.69-69.861-32.69
	C128.142,155.125,102.704,167.002,85.347,187.728z M42.765,144.287l22.477,20.376c22.951-25.352,55.704-39.862,89.911-39.862
	c34.179,0,66.931,14.51,89.884,39.801l22.448-20.376c-28.702-31.629-69.633-49.751-112.332-49.751
	C112.418,94.475,71.46,112.658,42.765,144.287z M0,101.2l22.15,20.701c34.293-36.697,82.775-57.753,133.002-57.753
	c50.971,0,98.172,20.496,132.941,57.692l22.154-20.733c-39.982-42.76-96.52-67.283-155.097-67.283
	C96.543,33.824,40.009,58.375,0,101.2z"/>
</svg>
